<svg width="60" height="60" viewBox="0 0 60 60" fill="none" xmlns="http://www.w3.org/2000/svg">
<circle cx="30" cy="29" r="13" stroke="#F97A48" stroke-width="2"/>
<path opacity="0.3" fill-rule="evenodd" clip-rule="evenodd" d="M0 30V37C0 49.7025 10.2975 60 23 60H30H37C49.7025 60 60 49.7025 60 37V30V23C60 10.2975 49.7025 0 37 0H30H23C10.2975 0 0 10.2975 0 23V30Z" fill="#FF9066"/>
<path d="M31.1094 23.7702C30.699 22.7433 29.301 22.7433 28.8906 23.7702L27.8382 26.402L25.1069 26.63C24.0419 26.7184 23.6099 28.1022 24.4217 28.826L26.5025 30.681L25.8665 33.4549C25.6187 34.5368 26.7497 35.392 27.6617 34.8122L30 33.3261L32.3383 34.8128C33.2503 35.3926 34.3813 34.5374 34.1335 33.4549L33.4975 30.6823L35.5783 28.8267C36.3901 28.1029 35.9581 26.7197 34.8931 26.6307L32.1618 26.4033L31.1094 23.7702Z" fill="#FB8151"/>
</svg>
